<?xml version="1.0" encoding="utf-8"?>
<!-- Generator: Adobe Illustrator 27.0.0, SVG Export Plug-In . SVG Version: 6.00 Build 0)  -->
<svg version="1.1" id="Слой_1" xmlns="http://www.w3.org/2000/svg" xmlns:xlink="http://www.w3.org/1999/xlink" x="0px" y="0px"
	 viewBox="0 0 122 122" style="enable-background:new 0 0 122 122;" xml:space="preserve">
<style type="text/css">
	.st0{fill:#FFFFFF;}
	.st1{fill:#141414;}
	.st2{fill:#2E82F5;}
</style>
<path class="st0" d="M82,122H40c-22.1,0-40-17.9-40-40V40C0,17.9,17.9,0,40,0H82c22.1,0,40,17.9,40,40V82
	C122,104.1,104.1,122,82,122z"/>
<path class="st1" d="M15.8,74.8H22V52.8h8.7v-5.1H7.1v5.1h8.7V74.8z"/>
<path class="st2" d="M52.6,47.7v10.7H40.3V47.7H34v27h6.3V63.7h12.3v11.1h6.3v-27H52.6z"/>
<path class="st2" d="M79.7,54v10.3c0,1.9-0.4,3.3-1.3,4.2c-0.9,0.9-2,1.4-3.5,1.4c-2.8,0-4.2-1.7-4.2-5V54h-6v11.7
	c0,3.1,0.8,5.4,2.4,7c1.6,1.6,3.8,2.4,6.5,2.4c1.3,0,2.5-0.2,3.6-0.7c1.1-0.5,2.1-1.2,2.9-2.1v2.5h5.7V54H79.7z"/>
<path class="st2" d="M103.6,53.7c-2.7,0-4.7,0.8-6.3,2.5V46.1h-6v28.7h5.8v-2.4c1.5,1.8,3.7,2.7,6.5,2.7c1.9,0,3.7-0.4,5.3-1.3
	c1.6-0.9,2.8-2.1,3.7-3.7c0.9-1.6,1.4-3.5,1.4-5.6c0-2.1-0.5-4-1.4-5.6c-0.9-1.6-2.1-2.9-3.7-3.7C107.3,54.1,105.6,53.7,103.6,53.7
	L103.6,53.7z M102.6,70.1c-1.5,0-2.8-0.5-3.8-1.6c-1-1-1.5-2.4-1.5-4.2c0-1.8,0.5-3.1,1.5-4.2c1-1,2.3-1.6,3.8-1.6
	c1.5,0,2.8,0.5,3.8,1.6c1,1,1.5,2.4,1.5,4.2c0,1.8-0.5,3.1-1.5,4.2C105.4,69.6,104.1,70.1,102.6,70.1L102.6,70.1z"/>
</svg>
